<svg xmlns="http://www.w3.org/2000/svg" width="137" height="38" viewBox="0 0 137 38">
  <defs>
    <style>
      .cls-1 {
        fill: #ee7b23;
        fill-rule: evenodd;
      }
    </style>
  </defs>
  <path id="Логотип" class="cls-1" d="M309.281,59.018H303.6V52.1h5.682a2.59,2.59,0,0,1,2.061,1.029,3.85,3.85,0,0,1,.847,2.528,3.575,3.575,0,0,1-.847,2.336,2.591,2.591,0,0,1-2.061,1.028h0Zm1.419,5a7.77,7.77,0,0,0,5.549-2.243,8.01,8.01,0,0,0,2.335-6.058,8.717,8.717,0,0,0-2.214-6.272q-2.225-2.319-7.8-2.323h-1.006l-0.057-.02H303.6V41.134H317.82l-1.361-5H297V61.155a2.831,2.831,0,0,0,.764,2.044,2.617,2.617,0,0,0,1.807.816H310.7ZM327.556,52.1h9.131v-5h-9.131V41.154h11.2V36.137H321.161V61.155a3,3,0,0,0,.744,2.064,2.309,2.309,0,0,0,1.769.8h14.394l1.362-5H327.556V52.1h0Zm15.532-15.96-1.38,5.017h7.362v20a2.8,2.8,0,0,0,.783,2.044,2.568,2.568,0,0,0,1.959.816h3.653V41.154h7.343V36.137h-19.72ZM371.7,50.192q0-4.41,1.7-6.61a6.133,6.133,0,0,1,9.4,0q1.689,2.2,1.686,6.61T382.8,56.815a6.12,6.12,0,0,1-9.4,0Q371.7,54.606,371.7,50.192Zm-6.388,0q0,6.32,3.595,10.074a13.141,13.141,0,0,0,18.383,0q3.6-3.752,3.6-10.074,0-6.47-3.589-10.266a13.066,13.066,0,0,0-18.4,0q-3.588,3.793-3.582,10.266h0Zm43.766,13.823h6.4V36.137h-3.653a2.568,2.568,0,0,0-1.96.816,2.78,2.78,0,0,0-.783,2.037V47.1h-9.15V36.137h-6.395V61.155a2.993,2.993,0,0,0,.745,2.064,2.306,2.306,0,0,0,1.769.8h3.881V52.1h9.15V64.015h0Zm19.6-16h5.335v3.767h-5.335v5.841h-3.911V51.787H419.2V48.02h5.567V42.525h3.911V48.02ZM301.553,32.991h-1.028l-2.587-3.155a1.944,1.944,0,0,1-.174-0.229h-0.023v3.383h-0.723v-6.88h0.723v3.235h0.023a1.453,1.453,0,0,1,.174-0.225l2.512-3.01h0.9l-2.861,3.3,3.064,3.579h0Zm0.453-3.356a3.906,3.906,0,0,1,.857-2.645A2.929,2.929,0,0,1,305.2,26a2.767,2.767,0,0,1,2.2.965,3.684,3.684,0,0,1,.835,2.5,3.967,3.967,0,0,1-.844,2.648,3.1,3.1,0,0,1-4.534.027,3.664,3.664,0,0,1-.848-2.5h0Zm0.762-.068a3.221,3.221,0,0,0,.632,2.051,2.039,2.039,0,0,0,1.687.8,2.155,2.155,0,0,0,1.756-.76,3.172,3.172,0,0,0,.63-2.087,3.329,3.329,0,0,0-.608-2.117,2.07,2.07,0,0,0-1.72-.766,2.1,2.1,0,0,0-1.729.81,3.2,3.2,0,0,0-.648,2.065h0ZM315.5,32.991V28.346q0-.538.068-1.327h-0.023a3.87,3.87,0,0,1-.193.649l-2.3,5.323h-0.326l-2.3-5.286a3.492,3.492,0,0,1-.19-0.686h-0.022c0.023,0.171.036,0.609,0.036,1.313v4.659h-0.7v-6.88h0.948l2.062,4.848a6.834,6.834,0,0,1,.309.812h0.028c0.044-.128.151-0.407,0.323-0.836l2.112-4.824h0.893v6.88H315.5Zm7.433,0h-0.741V26.822H318.7v6.169h-0.732v-6.88h4.962v6.88Zm6.785,0h-0.8L328.2,31.037h-2.831L324.7,32.991h-0.808l2.54-6.88h0.735l2.552,6.88h0Zm-1.767-2.645-1.055-2.973a2.389,2.389,0,0,1-.1-0.453h-0.023a1.908,1.908,0,0,1-.107.453l-1.045,2.973h2.328Zm7.659,2.645h-0.721V29.836h-3.463v3.155H330.7v-6.88h0.722V29.15h3.463V26.111h0.721v6.88Zm7.03,0H341.9V27.949a6.053,6.053,0,0,1,.049-0.94h-0.031a2.291,2.291,0,0,1-.2.431l-3.439,5.551h-0.925v-6.88h0.727v4.913q0,0.718-.032,1.018h0.014c0.11-.213.2-0.362,0.255-0.453l3.356-5.478h0.96v6.88Zm5.539,0h-0.727V30.047h-1a0.772,0.772,0,0,0-.506.17,1.846,1.846,0,0,0-.431.685l-0.839,2.089h-0.867l1.01-2.313a1.438,1.438,0,0,1,.749-0.819V29.836a1.7,1.7,0,0,1-1.022-.624,2,2,0,0,1,.214-2.57,2.179,2.179,0,0,1,1.526-.531h1.888v6.88h0Zm-0.727-3.64V26.813h-1.1a1.506,1.506,0,0,0-1.027.325,1.158,1.158,0,0,0-.372.922,1.21,1.21,0,0,0,.378.949,1.437,1.437,0,0,0,1,.342h1.121Z" transform="translate(-297 -26)"/>
</svg>
