<svg xmlns="http://www.w3.org/2000/svg" width="82.938" height="16.88" viewBox="0 0 82.938 16.88">
  <defs>
    <style>
      .cls-1 {
        fill: #fff;
        fill-rule: evenodd;
      }
    </style>
  </defs>
  <path id="Логотип" class="cls-1" d="M304.435,9800.98H301v-4.19h3.44a1.559,1.559,0,0,1,1.248.63,2.3,2.3,0,0,1,.512,1.53,2.17,2.17,0,0,1-.512,1.41,1.578,1.578,0,0,1-1.248.62h0Zm0.859,3.03a4.68,4.68,0,0,0,3.359-1.36,4.854,4.854,0,0,0,1.414-3.67,5.267,5.267,0,0,0-1.341-3.79q-1.347-1.41-4.719-1.41H303.4l-0.034-.01H301v-3.61H309.6l-0.824-3.03H297v15.15a1.741,1.741,0,0,0,.462,1.24,1.63,1.63,0,0,0,1.094.49h6.738Zm10.2-7.22h5.528v-3.02H315.5v-3.6h6.78v-3.04H311.627v15.15a1.824,1.824,0,0,0,.451,1.25,1.4,1.4,0,0,0,1.07.48h8.714l0.825-3.03H315.5v-4.19h0Zm9.4-9.66-0.836,3.04h4.457v12.11a1.72,1.72,0,0,0,.473,1.24,1.586,1.586,0,0,0,1.187.49h2.211v-13.84h4.446v-3.04H324.9Zm17.319,8.51a6.487,6.487,0,0,1,1.029-4,3.711,3.711,0,0,1,5.693,0,8.366,8.366,0,0,1,0,8.01,3.711,3.711,0,0,1-5.693,0A6.52,6.52,0,0,1,342.221,9795.64Zm-3.867,0a8.457,8.457,0,0,0,2.176,6.1,7.955,7.955,0,0,0,11.129,0,8.457,8.457,0,0,0,2.177-6.1,8.666,8.666,0,0,0-2.173-6.21,7.9,7.9,0,0,0-11.141,0,8.663,8.663,0,0,0-2.168,6.21h0Zm26.5,8.37h3.872v-16.88h-2.212a1.556,1.556,0,0,0-1.186.5,1.677,1.677,0,0,0-.474,1.23v4.91H359.31v-6.64h-3.872v15.15a1.824,1.824,0,0,0,.451,1.25,1.4,1.4,0,0,0,1.071.48h2.35v-7.22h5.539v7.22h0Zm11.868-9.68h3.23v2.28h-3.23v3.53H374.35v-3.53h-3.371v-2.28h3.371V9791h2.367v3.33Z" transform="translate(-297 -9787.12)"/>
</svg>
